{"title":"The.Frankestein.Syndrome.2010.DvDScr.XviD.Ac3.Feel-Free","uid":6397757,"size":843083051,"categoryP":"video","categoryS":"movies","magnet":"?xt=urn:btih:ce154967b851a2365abf7708e58e7daa4dbf668a&amp;dn=The.Frankestein.Syndrome.2010.DvDScr.XviD.Ac3.Feel-Free&amp;tr=udp%3A%2F%2Ftracker.openbittorrent.com%3A80&amp;tr=udp%3A%2F%2Fopen.demonii.com%3A1337&amp;tr=udp%3A%2F%2Ftracker.coppersurfer.tk%3A6969&amp;tr=udp%3A%2F%2Fexodus.desync.com%3A6969","seeders":0,"leechers":0,"uploader":"SaM","files":9,"time":1305567731,"description":"\nGenre:Horror\nLanguage:English\nIMDb:http://www.imdb.com/title/tt1337686/\nSource:DVDSCR.XtremE Thanks!\n\nFormat : AVI\nFormat/Info : Audio Video Interleave\nFile size : 803 MiB\nDuration : 1h 29mn\nOverall bit rate : 1 259 Kbps\n\nVideo\nID : 0\nFormat : MPEG-4 Visual\nFormat profile : Advanced Simple@L5\nFormat settings, BVOP : Yes\nFormat settings, QPel : No\nFormat settings, GMC : No warppoints\nFormat settings, Matrix : Default (H.263)\nCodec ID : XVID\nCodec ID/Hint : XviD\nDuration : 1h 29mn\nBit rate : 802 Kbps\nWidth : 640 pixels\nHeight : 272 pixels\nDisplay aspect ratio : 2.35:1\nFrame rate : 23.976 fps\nColor space : YUV\nChroma subsampling : 4:2:0\nBit depth : 8 bits\nScan type : Progressive\nBits/(Pixel*Frame) : 0.192\nStream size : 511 MiB (64%)\nWriting library : XviD 1.2.1 (UTC 2008-12-04)\n\nAudio\nID : 1\nFormat : AC-3\nFormat/Info : Audio Coding 3\nMode extension : CM (complete main)\nCodec ID : 2000\nDuration : 1h 29mn\nBit rate mode : Constant\nBit rate : 448 Kbps\nChannel(s) : 6 channels\nChannel positions : Front: L C R, Side: L R, LFE\nSampling rate : 48.0 KHz\nBit depth : 16 bits\nStream size : 286 MiB (36%)\nAlignment : Aligned on interleaves\nInterleave, duration : 42 ms (1.00 video frame)\nInterleave, preload duration : 512 ms\n\n\nPlot:\nA group of researchers conducting illegal stem cell research discover a cell anomaly that has the potential to regenerate dead tissue. Unable to conduct legal human trials, the researchers turn to corpses to test their serum.\n\n &lt;a href=&quot;\nhttp://www.pix2links.com/images/22062472059606000717.png&quot; rel=&quot;nofollow&quot; target=&quot;_NEW&quot;&gt;\nhttp://www.pix2links.com/images/22062472059606000717.png&lt;/a&gt;\n &lt;a href=&quot;\nhttp://www.pix2links.com/images/45252493540808576081.png&quot; rel=&quot;nofollow&quot; target=&quot;_NEW&quot;&gt;\nhttp://www.pix2links.com/images/45252493540808576081.png&lt;/a&gt;\n &lt;a href=&quot;\nhttp://www.pix2links.com/images/26939939889900512547.png&quot; rel=&quot;nofollow&quot; target=&quot;_NEW&quot;&gt;\nhttp://www.pix2links.com/images/26939939889900512547.png&lt;/a&gt;\n &lt;a href=&quot;\nhttp://www.pix2links.com/images/58556516685788468472.png&quot; rel=&quot;nofollow&quot; target=&quot;_NEW&quot;&gt;\nhttp://www.pix2links.com/images/58556516685788468472.png&lt;/a&gt;\n &lt;a href=&quot;\nhttp://www.pix2links.com/images/27107797307389584689.png&quot; rel=&quot;nofollow&quot; target=&quot;_NEW&quot;&gt;\nhttp://www.pix2links.com/images/27107797307389584689.png&lt;/a&gt;\n\nGreets:\n\nINK,CRYS,IMAGINE,LKRG,FXG,3Li,FLAWL3SS,TA,iLLUSiON,ViSiON,DTRG SAFCuk009,LU,TheFalcon007,MYSTiC,PrisM,Noir,WBZ,LAP,Rx,Kingdom,SAFCuk009+Fabreezy,HDLiTE,TWiZTED,ExtraTorrentRG.ELEKTRI4KA,MAGNAT,CM8\nAnd to all the other p2p grps past and present\n\n\n\n\nMake sure its a real Feel-Free release @ extratorrent","torrent":{"xt":"urn:btih:ce154967b851a2365abf7708e58e7daa4dbf668a","amp;dn":"The.Frankestein.Syndrome.2010.DvDScr.XviD.Ac3.Feel-Free","amp;tr":["udp%3A%2F%2Ftracker.openbittorrent.com%3A80","udp%3A%2F%2Fopen.demonii.com%3A1337","udp%3A%2F%2Ftracker.coppersurfer.tk%3A6969","udp%3A%2F%2Fexodus.desync.com%3A6969"],"infoHash":"ce154967b851a2365abf7708e58e7daa4dbf668a","infoHashBuffer":{"type":"Buffer","data":[206,21,73,103,184,81,162,54,90,191,119,8,229,142,125,170,77,191,102,138]},"announce":[],"urlList":[]}}